<svg width="977.418798828125px" height="238.4076171875px" xmlns="http://www.w3.org/2000/svg" viewBox="-238.7093994140625 -44.20380859375 977.418798828125 238.4076171875" style="background: rgba(191, 55, 55, 0.66);" preserveAspectRatio="xMidYMid"><defs><filter id="editing-liquid" width="150%" height="160%" x="-25%" y="-25%"><feFlood flood-color="#054f89" result="flood-1"></feFlood><feFlood flood-color="rgba(0%,25.2734693877551%,98.28571428571429%,0.34)" result="flood-2"></feFlood><feFlood flood-color="#ffffff" result="flood-3"></feFlood><feTurbulence baseFrequency="0.01" type="fractalNoise" numOctaves="1" seed="32" result="bs-1"></feTurbulence><feGaussianBlur stdDeviation="10" in="SourceAlpha" result="bs-2"></feGaussianBlur><feDisplacementMap scale="420" in="bs-2" in2="bs-1" result="bs-3"></feDisplacementMap><feComposite operator="in" in="flood-1" in2="bs-3" result="bs-4"></feComposite><feTurbulence baseFrequency="0.02" type="fractalNoise" numOctaves="2" seed="33" result="ms-1"></feTurbulence><feGaussianBlur in="SourceAlpha" stdDeviation="0.1" result="ms-2"></feGaussianBlur><feDisplacementMap in="ms-2" in2="ms-1" scale="35" result="ms-3"></feDisplacementMap><feComposite in="flood-3" in2="ms-3" operator="in" result="ms-4"></feComposite><feTurbulence baseFrequency="0.05" type="fractalNoise" numOctaves="1" seed="34" result="ts-1"></feTurbulence><feGaussianBlur stdDeviation="3.5" in="SourceAlpha" result="ts-2"></feGaussianBlur><feDisplacementMap scale="220" in="ts-2" in2="ts-1" result="ts-3"></feDisplacementMap><feComposite operator="in" in="flood-2" in2="ts-3" result="ts-4"></feComposite><feMerge result="le-1"><feMergeNode in="bs-4"></feMergeNode><feMergeNode in="ms-4"></feMergeNode><feMergeNode in="ts-4"></feMergeNode></feMerge><feColorMatrix type="matrix" in="le-1" result="le-2" values="0 0 0 0 0, 0 0 0 0 0, 0 0 0 0 0, 0 0 0 1 0"></feColorMatrix><feGaussianBlur stdDeviation="2" in="le-2" result="le-3"></feGaussianBlur><feSpecularLighting surfaceScale="5" specularConstant=".75" specularExponent="30" lighting-color="#white" in="le-3" result="le-4"><fePointLight x="-50" y="-100" z="400"></fePointLight></feSpecularLighting><feComposite operator="in" in="le-4" in2="le-2" result="le-5"></feComposite><feComposite operator="arithmetic" k1="0" k2="1" k3="1" k4="0" in="le-1" in2="le-5" result="le-6"></feComposite></filter></defs><g filter="url(#editing-liquid)"><g transform="translate(-80.03030395507812, 128.06499862670898)"><path d="M73.27-102.59L73.27-67.92L64.07-67.92L64.07-93.39L42.06-93.39L42.06-9.20L58.57-9.20L58.57 0L14.62 0L14.62-9.20L31.21-9.20L31.21-93.39L9.20-93.39L9.20-67.92L0-67.92L0-102.59L73.27-102.59ZM146.46-9.20L146.46 0L102.51 0L102.51-9.20L119.10-9.20L119.10-93.39L102.51-93.39L102.51-102.59L146.46-102.59L146.46-93.39L129.95-93.39L129.95-9.20L146.46-9.20ZM219.88-102.59L254.00 0L242.44 0L232.77-29.32L192.21-29.32L182.70 0L171.14 0L205.26-102.59L219.88-102.59ZM195.28-38.83L229.71-38.83L212.49-91.74L195.28-38.83ZM340.95-53.14L340.95-51.02L340.95-51.02Q340.95-40.56 338.78-31.05L338.78-31.05L338.78-31.05Q336.62-21.54 331.87-14.23L331.87-14.23L331.87-14.23Q327.11-6.92 319.60-2.55L319.60-2.55L319.60-2.55Q312.09 1.81 301.48 1.81L301.48 1.81L301.48 1.81Q290.71 1.81 283.24-2.63L283.24-2.63L283.24-2.63Q275.78-7.08 271.02-14.39L271.02-14.39L271.02-14.39Q266.26-21.70 264.18-31.29L264.18-31.29L264.18-31.29Q262.10-40.88 262.10-51.18L262.10-51.18L262.10-51.18Q262.10-61.48 264.18-71.07L264.18-71.07L264.18-71.07Q266.26-80.66 271.02-88.05L271.02-88.05L271.02-88.05Q275.78-95.44 283.24-99.88L283.24-99.88L283.24-99.88Q290.71-104.32 301.48-104.32L301.48-104.32L301.48-104.32Q310.99-104.32 317.75-100.94L317.75-100.94L317.75-100.94Q324.52-97.56 327.74-90.64L327.74-90.64L327.74-102.59L336.94-102.59L336.94-68.94L327.74-68.94L327.74-68.94Q327.74-74.53 325.66-79.36L325.66-79.36L325.66-79.36Q323.57-84.19 320.03-87.65L320.03-87.65L320.03-87.65Q316.50-91.11 311.66-93.12L311.66-93.12L311.66-93.12Q306.83-95.12 301.48-95.12L301.48-95.12L301.48-95.12Q293.15-95.12 287.69-91.19L287.69-91.19L287.69-91.19Q282.22-87.26 278.92-80.89L278.92-80.89L278.92-80.89Q275.62-74.53 274.24-66.74L274.24-66.74L274.24-66.74Q272.87-58.96 272.87-51.18L272.87-51.18L272.87-51.18Q272.87-43.47 274.24-35.65L274.24-35.65L274.24-35.65Q275.62-27.83 278.92-21.58L278.92-21.58L278.92-21.58Q282.22-15.33 287.69-11.36L287.69-11.36L287.69-11.36Q293.15-7.39 301.48-7.39L301.48-7.39L301.48-7.39Q313.90-7.39 321.06-16.98L321.06-16.98L321.06-16.98Q328.21-26.57 329.55-43.94L329.55-43.94L306.83-43.94L306.83-53.14L340.95-53.14ZM427.58-51.18L427.58-51.18L427.58-51.18Q427.58-40.88 425.46-31.29L425.46-31.29L425.46-31.29Q423.33-21.70 418.69-14.39L418.69-14.39L418.69-14.39Q414.06-7.08 406.55-2.63L406.55-2.63L406.55-2.63Q399.04 1.81 388.27 1.81L388.27 1.81L388.27 1.81Q377.50 1.81 369.99-2.63L369.99-2.63L369.99-2.63Q362.49-7.08 357.81-14.39L357.81-14.39L357.81-14.39Q353.13-21.70 351.05-31.29L351.05-31.29L351.05-31.29Q348.96-40.88 348.96-51.18L348.96-51.18L348.96-51.18Q348.96-61.48 351.05-71.07L351.05-71.07L351.05-71.07Q353.13-80.66 357.89-88.05L357.89-88.05L357.89-88.05Q362.64-95.44 370.15-99.88L370.15-99.88L370.15-99.88Q377.66-104.32 388.27-104.32L388.27-104.32L388.27-104.32Q398.88-104.32 406.39-99.88L406.39-99.88L406.39-99.88Q413.90-95.44 418.54-88.05L418.54-88.05L418.54-88.05Q423.18-80.66 425.38-71.07L425.38-71.07L425.38-71.07Q427.58-61.48 427.58-51.18ZM416.73-51.18L416.73-51.18L416.73-51.18Q416.73-61.32 414.80-69.45L414.80-69.45L414.80-69.45Q412.88-77.59 409.26-83.33L409.26-83.33L409.26-83.33Q405.64-89.07 400.34-92.10L400.34-92.10L400.34-92.10Q395.03-95.12 388.27-95.12L388.27-95.12L388.27-95.12Q379.86-95.12 374.40-91.19L374.40-91.19L374.40-91.19Q368.93-87.26 365.63-80.89L365.63-80.89L365.63-80.89Q362.33-74.53 361.03-66.74L361.03-66.74L361.03-66.74Q359.73-58.96 359.73-51.18L359.73-51.18L359.73-51.18Q359.73-43.47 361.03-35.65L361.03-35.65L361.03-35.65Q362.33-27.83 365.63-21.58L365.63-21.58L365.63-21.58Q368.93-15.33 374.40-11.36L374.40-11.36L374.40-11.36Q379.86-7.39 388.27-7.39L388.27-7.39L388.27-7.39Q396.60-7.39 402.11-11.36L402.11-11.36L402.11-11.36Q407.61-15.33 410.91-21.58L410.91-21.58L410.91-21.58Q414.21-27.83 415.47-35.65L415.47-35.65L415.47-35.65Q416.73-43.47 416.73-51.18ZM571.44-102.59L605.56 0L594.00 0L584.33-29.32L543.77-29.32L534.26 0L522.70 0L556.82-102.59L571.44-102.59ZM546.83-38.83L581.27-38.83L564.05-91.74L546.83-38.83ZM659.17-14.62L659.17 0L644.55 0L644.55-14.62L659.17-14.62Z" fill="#444"></path></g></g><style>text {
  font-size: 64px;
  font-family: Arial Black;
  dominant-baseline: central;
  text-anchor: middle;
}</style></svg>