<svg width="264.2474609375px" height="122.021240234375px" xmlns="http://www.w3.org/2000/svg" viewBox="117.87626953124999 13.9893798828125 264.2474609375 122.021240234375" style="background: none;" preserveAspectRatio="xMidYMid"><defs><filter id="editing-hover" x="-100%" y="-100%" width="300%" height="300%"><feFlood flood-color="#767d83" result="flood"></feFlood><feComposite operator="in" in2="SourceAlpha" in="flood" result="shadow"></feComposite><feOffset dx="-1.2" dy="-1.3" in="SourceGraphic" result="offset-1"></feOffset><feOffset dx="1.2" dy="1.3" in="shadow" result="offset-2"></feOffset><feMerge><feMergeNode in="offset-2"></feMergeNode><feMergeNode in="offset-1"></feMergeNode></feMerge></filter></defs><g filter="url(#editing-hover)"><g transform="translate(161.45500361919403, 106.39031219482422)"><path d="M13.44-42.43L13.44 0L11.07 0L11.07-42.43L0.83-42.43L0.83-44.80L23.74-44.80L23.74-42.43L13.44-42.43ZM31.42-32L31.42 0L29.06 0L29.06-32L31.42-32ZM29.18-37.06L29.18-42.56L31.55-42.56L31.55-37.06L29.18-37.06ZM58.24-28.16L58.24-32L60.61-32L60.61 0.06L60.61 0.06Q56.77 0.06 53.89-0.26L53.89-0.26L53.89-0.26Q51.01-0.58 47.90-1.63L47.90-1.63L47.90-1.63Q44.80-2.69 42.82-4.48L42.82-4.48L42.82-4.48Q40.83-6.27 39.55-9.44L39.55-9.44L39.55-9.44Q38.27-12.61 38.27-16.58L38.27-16.58L38.27-16.58Q38.27-20.54 39.07-23.39L39.07-23.39L39.07-23.39Q39.87-26.24 41.12-27.94L41.12-27.94L41.12-27.94Q42.37-29.63 43.90-30.72L43.90-30.72L43.90-30.72Q46.59-32.70 49.22-32.70L49.22-32.70L49.22-32.70Q54.02-32.70 58.24-28.16L58.24-28.16ZM40.64-16.90L40.64-16.90L40.64-16.90Q40.64-8.51 45.82-5.25L45.82-5.25L45.82-5.25Q50.43-2.37 58.24-2.37L58.24-2.37L58.24-24.96L58.24-24.96Q56.06-27.46 54.05-28.90L54.05-28.90L54.05-28.90Q52.03-30.34 49.60-30.34L49.60-30.34L49.60-30.34Q45.57-30.34 43.10-26.78L43.10-26.78L43.10-26.78Q40.64-23.23 40.64-16.90ZM87.42-28.16L87.42-32L89.79-32L89.79 1.09L89.79 1.09Q89.79 5.50 88.70 8.80L88.70 8.80L88.70 8.80Q87.62 12.10 85.95 13.70L85.95 13.70L85.95 13.70Q82.69 16.83 79.49 16.83L79.49 16.83L79.49 16.83Q75.20 16.83 71.42 13.25L71.42 13.25L71.42 10.18L71.42 10.18Q75.46 14.46 79.42 14.46L79.42 14.46L79.42 14.46Q83.39 14.46 85.41 10.66L85.41 10.66L85.41 10.66Q87.42 6.85 87.42 1.02L87.42 1.02L87.42 0L87.42 0Q75.97-0.45 71.42-4.99L71.42-4.99L71.42-4.99Q67.46-9.09 67.46-16.96L67.46-16.96L67.46-16.96Q67.46-26.62 73.09-30.72L73.09-30.72L73.09-30.72Q75.78-32.70 78.40-32.70L78.40-32.70L78.40-32.70Q83.20-32.70 87.42-28.16L87.42-28.16ZM78.78-30.34L78.78-30.34Q75.01-30.34 72.42-26.30L72.42-26.30L72.42-26.30Q69.82-22.27 69.82-17.50L69.82-17.50L69.82-17.50Q69.82-12.74 71.17-9.79L71.17-9.79L71.17-9.79Q72.51-6.85 75.01-5.25L75.01-5.25L75.01-5.25Q79.62-2.37 87.42-2.37L87.42-2.37L87.42-24.96L87.42-24.96Q85.25-27.46 83.23-28.90L83.23-28.90L83.23-28.90Q81.22-30.34 78.78-30.34L78.78-30.34ZM120.26-17.22L120.26-17.22L120.26-17.22Q120.26-12.86 119.42-9.57L119.42-9.57L119.42-9.57Q118.59-6.27 117.34-4.48L117.34-4.48L117.34-4.48Q116.10-2.69 114.37-1.60L114.37-1.60L114.37-1.60Q110.02 1.22 104.83-0.45L104.83-0.45L104.83-0.45Q103.04-1.02 101.06-2.53L101.06-2.53L101.06-2.53Q99.07-4.03 97.86-7.30L97.86-7.30L97.86-7.30Q96.64-10.56 96.64-15.30L96.64-15.30L96.64-15.30Q96.64-22.98 99.71-27.81L99.71-27.81L99.71-27.81Q102.78-32.64 108.58-32.64L108.58-32.64L108.58-32.64Q114.37-32.64 117.28-28.10L117.28-28.10L117.28-28.10Q120.19-23.55 120.26-17.22ZM107.71-2.24L107.71-2.24L108.48-2.18L109.18-2.24L109.18-2.24Q117.89-3.07 117.89-16.90L117.89-16.90L117.89-16.90Q117.89-22.59 115.58-26.43L115.58-26.43L115.58-26.43Q113.28-30.27 108.22-30.27L108.22-30.27L108.22-30.27Q104.96-30.27 102.78-28.03L102.78-28.03L102.78-28.03Q99.01-24.06 99.01-15.68L99.01-15.68L99.01-15.17L99.01-15.17Q99.01-9.86 101.18-6.24L101.18-6.24L101.18-6.24Q103.36-2.62 107.71-2.24ZM163.26-41.47L163.26-41.47L163.26 0L160.90 0L160.90-21.12L142.72-21.12L142.72 0L140.35 0L140.35-29.31L140.35-29.31Q140.35-36.22 144.77-40.64L144.77-40.64L144.77-40.64Q149.18-45.06 155.84-45.06L155.84-45.06L155.84-45.06Q160.70-45.06 163.26-41.47ZM142.72-23.49L160.90-23.49L160.90-40.58L160.90-40.58Q158.85-42.69 155.71-42.69L155.71-42.69L155.71-42.69Q150.08-42.69 146.40-38.59L146.40-38.59L146.40-38.59Q142.72-34.50 142.72-29.25L142.72-29.25L142.72-23.49ZM176.26-6.08L176.26 0L171.33 0L171.33-6.08L176.26-6.08Z" fill="#ffffff"></path></g></g><style>text {
  font-size: 64px;
  font-family: Arial Black;
  dominant-baseline: central;
  text-anchor: middle;
}</style></svg>