<svg width="251.28498535156248px" height="122.021240234375px" xmlns="http://www.w3.org/2000/svg" viewBox="124.35750732421876 13.9893798828125 251.28498535156248 122.021240234375" style="background: rgba(0, 0, 0, 0);" preserveAspectRatio="xMidYMid"><defs><filter id="editing-jagged" x="-100%" y="-100%" width="300%" height="300%"><feTurbulence result="turb" baseFrequency="0.1" numOctaves="1" seed="1"></feTurbulence><feDisplacementMap in="SourceGraphic" in2="turb" scale="10"></feDisplacementMap></filter></defs><g filter="url(#editing-jagged)"><g transform="translate(164.3049988746643, 104.75218772888184)"><path d="M6.21-31.17L6.21-31.17L6.21-31.17Q4.03-32.83 4.03-36.38L4.03-36.38L4.03-36.38Q4.03-39.94 6.37-41.79L6.37-41.79L6.37-41.79Q8.70-43.65 12.74-43.65L12.74-43.65L12.74-43.65Q15.30-43.65 21.38-42.75L21.38-42.75L25.73-42.11L25.73-42.11Q27.90-41.86 30.18-41.86L30.18-41.86L30.18-41.86Q32.45-41.86 33.98-42.82L33.98-42.82L33.98-42.82Q36.29-40.77 36.29-37.82L36.29-37.82L36.29-37.82Q36.29-34.88 33.66-32.77L33.66-32.77L33.66-32.77Q30.98-30.53 27.52-30.53L27.52-30.53L27.52-30.53Q25.86-30.53 23.17-30.98L23.17-30.98L23.17-30.98Q20.03-21.12 20.03-14.27L20.03-14.27L20.03-14.27Q20.03-7.42 23.49-3.84L23.49-3.84L23.49-3.84Q21.89-0.96 19.52 0.16L19.52 0.16L19.52 0.16Q17.15 1.28 13.60 1.28L13.60 1.28L13.60 1.28Q10.05 1.28 7.84-0.67L7.84-0.67L7.84-0.67Q5.63-2.62 5.63-6.66L5.63-6.66L5.63-6.66Q5.63-11.33 8.19-19.01L8.19-19.01L8.19-19.01Q10.75-26.62 14.59-32.45L14.59-32.45L14.59-32.45Q12.74-32.64 10.82-32.64L10.82-32.64L10.82-32.64Q6.85-32.64 6.21-31.17ZM49.60-3.52L49.60-3.52L49.60-3.52Q47.62 1.28 41.28 1.28L41.28 1.28L41.28 1.28Q38.02 1.28 35.97-0.96L35.97-0.96L35.97-0.96Q34.24-2.94 34.24-4.93L34.24-4.93L34.24-4.93Q34.24-10.11 36.61-20.22L36.61-20.22L38.98-32.64L51.97-33.92L48.06-13.70L48.06-13.70Q46.98-8.96 46.98-7.30L46.98-7.30L46.98-7.30Q46.98-3.65 49.60-3.52ZM40.13-41.54L40.13-41.54L40.13-41.54Q40.13-44.03 42.21-45.38L42.21-45.38L42.21-45.38Q44.29-46.72 47.30-46.72L47.30-46.72L47.30-46.72Q50.30-46.72 52.13-45.38L52.13-45.38L52.13-45.38Q53.95-44.03 53.95-41.54L53.95-41.54L53.95-41.54Q53.95-39.04 51.94-37.76L51.94-37.76L51.94-37.76Q49.92-36.48 46.91-36.48L46.91-36.48L46.91-36.48Q43.90-36.48 42.02-37.76L42.02-37.76L42.02-37.76Q40.13-39.04 40.13-41.54ZM57.82-1.92L57.82-1.92L57.82-1.92Q56.32-3.58 55.65-6.21L55.65-6.21L55.65-6.21Q54.98-8.83 54.98-13.12L54.98-13.12L54.98-13.12Q54.98-17.41 56.45-21.31L56.45-21.31L56.45-21.31Q57.92-25.22 60.61-28.03L60.61-28.03L60.61-28.03Q66.11-33.92 75.20-33.92L75.20-33.92L75.20-33.92Q78.46-33.92 80.83-32.83L80.83-32.83L91.78-33.92L87.04-8.96L87.04-8.96Q86.85-8.19 86.85-6.78L86.85-6.78L86.85-6.78Q86.85-5.38 87.71-4.48L87.71-4.48L87.71-4.48Q88.58-3.58 89.86-3.46L89.86-3.46L89.86-3.46Q89.22-1.28 86.88 0L86.88 0L86.88 0Q84.54 1.28 81.92 1.28L81.92 1.28L81.92 1.28Q79.30 1.28 77.54 0.29L77.54 0.29L77.54 0.29Q75.78-0.70 75.26-2.37L75.26-2.37L75.26-2.37Q74.24-0.77 72.06 0.26L72.06 0.26L72.06 0.26Q69.89 1.28 66.98 1.28L66.98 1.28L66.98 1.28Q64.06 1.28 61.70 0.51L61.70 0.51L61.70 0.51Q59.33-0.26 57.82-1.92ZM71.33-27.90L71.33-27.90L71.33-27.90Q70.59-26.75 69.95-24.80L69.95-24.80L69.95-24.80Q69.31-22.85 68.26-17.63L68.26-17.63L68.26-17.63Q67.20-12.42 67.20-8.70L67.20-8.70L67.20-8.70Q67.20-4.99 67.78-3.90L67.78-3.90L67.78-3.90Q68.35-2.82 69.38-2.82L69.38-2.82L69.38-2.82Q71.42-2.82 72.93-4.77L72.93-4.77L72.93-4.77Q74.43-6.72 75.01-10.18L75.01-10.18L78.40-28.93L78.40-28.93Q77.06-30.08 75.49-30.08L75.49-30.08L75.49-30.08Q73.92-30.08 72.99-29.57L72.99-29.57L72.99-29.57Q72.06-29.06 71.33-27.90ZM99.52-26.75L99.52-26.75L99.52-26.75Q101.70-29.82 104.99-31.87L104.99-31.87L104.99-31.87Q108.29-33.92 112.32-33.92L112.32-33.92L112.32-33.92Q116.35-33.92 118.27-32.64L118.27-32.64L130.82-33.92L126.46-9.34L126.46-9.34Q124.22 3.20 119.49 8.13L119.49 8.13L119.49 8.13Q114.94 12.80 106.11 12.80L106.11 12.80L106.11 12.80Q99.39 12.80 95.55 10.69L95.55 10.69L95.55 10.69Q91.71 8.58 91.71 5.06L91.71 5.06L91.71 5.06Q91.71 2.43 93.70 0.93L93.70 0.93L93.70 0.93Q95.68-0.58 98.75-0.58L98.75-0.58L98.75-0.58Q101.44-0.58 103.49 0.64L103.49 0.64L103.49 0.64Q104.70 1.28 105.28 2.18L105.28 2.18L105.28 2.18Q103.81 3.46 103.81 5.57L103.81 5.57L103.81 5.57Q103.81 8.32 106.37 8.32L106.37 8.32L106.37 8.32Q110.66 8.32 113.09-1.79L113.09-1.79L113.09-1.79Q113.79-4.54 114.37-7.30L114.37-7.30L114.37-7.30Q111.49-3.78 104.96-3.78L104.96-3.78L104.96-3.78Q100.42-3.78 97.79-5.95L97.79-5.95L97.79-5.95Q95.17-8.13 95.17-13.25L95.17-13.25L95.17-13.25Q95.17-16.45 96.26-20.06L96.26-20.06L96.26-20.06Q97.34-23.68 99.52-26.75ZM107.84-13.06L107.84-13.06L107.84-13.06Q107.84-8.70 110.08-8.70L110.08-8.70L110.08-8.70Q111.62-8.70 113.09-10.37L113.09-10.37L113.09-10.37Q114.24-11.71 114.69-13.70L114.69-13.70L117.95-30.14L117.95-30.14Q117.63-30.21 117.31-30.34L117.31-30.34L117.31-30.34Q116.67-30.59 115.84-30.59L115.84-30.59L115.84-30.59Q111.94-30.59 109.63-24.19L109.63-24.19L109.63-24.19Q107.84-19.20 107.84-13.06ZM147.26 1.28L147.26 1.28L147.26 1.28Q133.18 1.28 133.18-11.97L133.18-11.97L133.18-11.97Q133.18-21.38 138.37-27.46L138.37-27.46L138.37-27.46Q143.87-33.92 153.41-33.92L153.41-33.92L153.41-33.92Q160.32-33.92 163.84-30.72L163.84-30.72L163.84-30.72Q167.36-27.52 167.36-20.80L167.36-20.80L167.36-20.80Q167.36-10.56 161.86-4.61L161.86-4.61L161.86-4.61Q156.48 1.28 147.26 1.28ZM148.93-26.56L148.93-26.56L148.93-26.56Q148.16-24.83 147.55-22.24L147.55-22.24L147.55-22.24Q146.94-19.65 146.18-15.55L146.18-15.55L146.18-15.55Q145.41-11.46 145.41-6.40L145.41-6.40L145.41-6.40Q145.41-4.74 145.95-3.65L145.95-3.65L145.95-3.65Q146.50-2.56 147.97-2.56L147.97-2.56L147.97-2.56Q149.44-2.56 150.37-3.26L150.37-3.26L150.37-3.26Q151.30-3.97 152-5.63L152-5.63L152-5.63Q153.28-8.58 154.30-14.05L154.30-14.05L154.30-14.05Q155.33-19.52 155.42-21.89L155.42-21.89L155.42-21.89Q155.52-24.26 155.52-26.02L155.52-26.02L155.52-26.02Q155.52-27.78 155.01-28.93L155.01-28.93L155.01-28.93Q154.50-30.08 153.06-30.08L153.06-30.08L153.06-30.08Q151.62-30.08 150.66-29.18L150.66-29.18L150.66-29.18Q149.70-28.29 148.93-26.56Z" fill="#fff"></path></g></g><style>text {
  font-size: 64px;
  font-family: Arial Black;
  dominant-baseline: central;
  text-anchor: middle;
}</style></svg>