<svg width="401.3312744140625px" height="106.40234375px" xmlns="http://www.w3.org/2000/svg" viewBox="49.33436279296876 21.798828125 401.3312744140625 106.40234375" style="background: rgba(0, 0, 0, 0);" preserveAspectRatio="xMidYMid"><defs><filter id="editing-liquid" width="150%" height="160%" x="-25%" y="-25%"><feFlood flood-color="#054f89" result="flood-1"></feFlood><feFlood flood-color="rgba(100%,100%,100%,0.34)" result="flood-2"></feFlood><feFlood flood-color="#f4f4f4" result="flood-3"></feFlood><feTurbulence baseFrequency="0.01" type="fractalNoise" numOctaves="1" seed="27" result="bs-1"></feTurbulence><feGaussianBlur stdDeviation="10" in="SourceAlpha" result="bs-2"></feGaussianBlur><feDisplacementMap scale="420" in="bs-2" in2="bs-1" result="bs-3"></feDisplacementMap><feComposite operator="in" in="flood-1" in2="bs-3" result="bs-4"></feComposite><feTurbulence baseFrequency="0.02" type="fractalNoise" numOctaves="2" seed="28" result="ms-1"></feTurbulence><feGaussianBlur in="SourceAlpha" stdDeviation="0.1" result="ms-2"></feGaussianBlur><feDisplacementMap in="ms-2" in2="ms-1" scale="35" result="ms-3"></feDisplacementMap><feComposite in="flood-3" in2="ms-3" operator="in" result="ms-4"></feComposite><feTurbulence baseFrequency="0.05" type="fractalNoise" numOctaves="1" seed="29" result="ts-1"></feTurbulence><feGaussianBlur stdDeviation="3.5" in="SourceAlpha" result="ts-2"></feGaussianBlur><feDisplacementMap scale="220" in="ts-2" in2="ts-1" result="ts-3"></feDisplacementMap><feComposite operator="in" in="flood-2" in2="ts-3" result="ts-4"></feComposite><feMerge result="le-1"><feMergeNode in="bs-4"></feMergeNode><feMergeNode in="ms-4"></feMergeNode><feMergeNode in="ts-4"></feMergeNode></feMerge><feColorMatrix type="matrix" in="le-1" result="le-2" values="0 0 0 0 0, 0 0 0 0 0, 0 0 0 0 0, 0 0 0 1 0"></feColorMatrix><feGaussianBlur stdDeviation="2" in="le-2" result="le-3"></feGaussianBlur><feSpecularLighting surfaceScale="5" specularConstant=".75" specularExponent="30" lighting-color="#white" in="le-3" result="le-4"><fePointLight x="-50" y="-100" z="400"></fePointLight></feSpecularLighting><feComposite operator="in" in="le-4" in2="le-2" result="le-5"></feComposite><feComposite operator="arithmetic" k1="0" k2="1" k3="1" k4="0" in="le-1" in2="le-5" result="le-6"></feComposite></filter></defs><g filter="url(#editing-liquid)"><g transform="translate(118.53968811035156, 96.09500122070312)"><path d="M29.13-40.78L29.13-27L25.47-27L25.47-37.13L16.72-37.13L16.72-3.66L23.28-3.66L23.28 0L5.81 0L5.81-3.66L12.41-3.66L12.41-37.13L3.66-37.13L3.66-27L0-27L0-40.78L29.13-40.78ZM58.22-3.66L58.22 0L40.75 0L40.75-3.66L47.34-3.66L47.34-37.13L40.75-37.13L40.75-40.78L58.22-40.78L58.22-37.13L51.66-37.13L51.66-3.66L58.22-3.66ZM87.41-40.78L100.97 0L96.38 0L92.53-11.66L76.41-11.66L72.63 0L68.03 0L81.59-40.78L87.41-40.78ZM77.63-15.44L91.31-15.44L84.47-36.47L77.63-15.44ZM135.53-21.13L135.53-20.28L135.53-20.28Q135.53-16.13 134.67-12.34L134.67-12.34L134.67-12.34Q133.81-8.56 131.92-5.66L131.92-5.66L131.92-5.66Q130.03-2.75 127.05-1.02L127.05-1.02L127.05-1.02Q124.06 0.72 119.84 0.72L119.84 0.72L119.84 0.72Q115.56 0.72 112.59-1.05L112.59-1.05L112.59-1.05Q109.63-2.81 107.73-5.72L107.73-5.72L107.73-5.72Q105.84-8.63 105.02-12.44L105.02-12.44L105.02-12.44Q104.19-16.25 104.19-20.34L104.19-20.34L104.19-20.34Q104.19-24.44 105.02-28.25L105.02-28.25L105.02-28.25Q105.84-32.06 107.73-35L107.73-35L107.73-35Q109.63-37.94 112.59-39.70L112.59-39.70L112.59-39.70Q115.56-41.47 119.84-41.47L119.84-41.47L119.84-41.47Q123.63-41.47 126.31-40.13L126.31-40.13L126.31-40.13Q129-38.78 130.28-36.03L130.28-36.03L130.28-40.78L133.94-40.78L133.94-27.41L130.28-27.41L130.28-27.41Q130.28-29.63 129.45-31.55L129.45-31.55L129.45-31.55Q128.63-33.47 127.22-34.84L127.22-34.84L127.22-34.84Q125.81-36.22 123.89-37.02L123.89-37.02L123.89-37.02Q121.97-37.81 119.84-37.81L119.84-37.81L119.84-37.81Q116.53-37.81 114.36-36.25L114.36-36.25L114.36-36.25Q112.19-34.69 110.88-32.16L110.88-32.16L110.88-32.16Q109.56-29.63 109.02-26.53L109.02-26.53L109.02-26.53Q108.47-23.44 108.47-20.34L108.47-20.34L108.47-20.34Q108.47-17.28 109.02-14.17L109.02-14.17L109.02-14.17Q109.56-11.06 110.88-8.58L110.88-8.58L110.88-8.58Q112.19-6.09 114.36-4.52L114.36-4.52L114.36-4.52Q116.53-2.94 119.84-2.94L119.84-2.94L119.84-2.94Q124.78-2.94 127.63-6.75L127.63-6.75L127.63-6.75Q130.47-10.56 131-17.47L131-17.47L121.97-17.47L121.97-21.13L135.53-21.13ZM169.97-20.34L169.97-20.34L169.97-20.34Q169.97-16.25 169.13-12.44L169.13-12.44L169.13-12.44Q168.28-8.63 166.44-5.72L166.44-5.72L166.44-5.72Q164.59-2.81 161.61-1.05L161.61-1.05L161.61-1.05Q158.63 0.72 154.34 0.72L154.34 0.72L154.34 0.72Q150.06 0.72 147.08-1.05L147.08-1.05L147.08-1.05Q144.09-2.81 142.23-5.72L142.23-5.72L142.23-5.72Q140.38-8.63 139.55-12.44L139.55-12.44L139.55-12.44Q138.72-16.25 138.72-20.34L138.72-20.34L138.72-20.34Q138.72-24.44 139.55-28.25L139.55-28.25L139.55-28.25Q140.38-32.06 142.27-35L142.27-35L142.27-35Q144.16-37.94 147.14-39.70L147.14-39.70L147.14-39.70Q150.13-41.47 154.34-41.47L154.34-41.47L154.34-41.47Q158.56-41.47 161.55-39.70L161.55-39.70L161.55-39.70Q164.53-37.94 166.38-35L166.38-35L166.38-35Q168.22-32.06 169.09-28.25L169.09-28.25L169.09-28.25Q169.97-24.44 169.97-20.34ZM165.66-20.34L165.66-20.34L165.66-20.34Q165.66-24.38 164.89-27.61L164.89-27.61L164.89-27.61Q164.13-30.84 162.69-33.13L162.69-33.13L162.69-33.13Q161.25-35.41 159.14-36.61L159.14-36.61L159.14-36.61Q157.03-37.81 154.34-37.81L154.34-37.81L154.34-37.81Q151-37.81 148.83-36.25L148.83-36.25L148.83-36.25Q146.66-34.69 145.34-32.16L145.34-32.16L145.34-32.16Q144.03-29.63 143.52-26.53L143.52-26.53L143.52-26.53Q143-23.44 143-20.34L143-20.34L143-20.34Q143-17.28 143.52-14.17L143.52-14.17L143.52-14.17Q144.03-11.06 145.34-8.58L145.34-8.58L145.34-8.58Q146.66-6.09 148.83-4.52L148.83-4.52L148.83-4.52Q151-2.94 154.34-2.94L154.34-2.94L154.34-2.94Q157.66-2.94 159.84-4.52L159.84-4.52L159.84-4.52Q162.03-6.09 163.34-8.58L163.34-8.58L163.34-8.58Q164.66-11.06 165.16-14.17L165.16-14.17L165.16-14.17Q165.66-17.28 165.66-20.34ZM227.16-40.78L240.72 0L236.13 0L232.28-11.66L216.16-11.66L212.38 0L207.78 0L221.34-40.78L227.16-40.78ZM217.38-15.44L231.06-15.44L224.22-36.47L217.38-15.44ZM262.03-5.81L262.03 0L256.22 0L256.22-5.81L262.03-5.81Z" fill="#444"></path></g></g><style>text {
  font-size: 64px;
  font-family: Arial Black;
  dominant-baseline: central;
  text-anchor: middle;
}</style></svg>