<svg width="258.78623046875px" height="107.61376953125px" xmlns="http://www.w3.org/2000/svg" viewBox="120.60688476562501 21.193115234375 258.78623046875 107.61376953125" style="background: rgba(0, 0, 0, 0);" preserveAspectRatio="xMidYMid"><defs><filter id="editing-jagged" x="-100%" y="-100%" width="300%" height="300%"><feTurbulence result="turb" baseFrequency="0.1" numOctaves="1" seed="1"></feTurbulence><feDisplacementMap in="SourceGraphic" in2="turb" scale="10"></feDisplacementMap></filter></defs><g filter="url(#editing-jagged)"><g transform="translate(164.73968505859375, 102.00531196594238)"><path d="M29.13-40.78L29.13-27L25.47-27L25.47-37.13L16.72-37.13L16.72-3.66L23.28-3.66L23.28 0L5.81 0L5.81-3.66L12.41-3.66L12.41-37.13L3.66-37.13L3.66-27L0-27L0-40.78L29.13-40.78ZM52.41-40.78L52.41-34.94L46.59-34.94L46.59-40.78L52.41-40.78ZM58.22-3.66L58.22 0L40.75 0L40.75-3.66L47.34-3.66L47.34-25.47L40.75-25.47L40.75-29.13L51.66-29.13L51.66-3.66L58.22-3.66ZM69.81-7.88L69.81-7.88L69.81-7.88Q69.81-10.63 71.19-12.48L71.19-12.48L71.19-12.48Q72.56-14.34 74.80-15.42L74.80-15.42L74.80-15.42Q77.03-16.50 79.92-16.98L79.92-16.98L79.92-16.98Q82.81-17.47 85.81-17.47L85.81-17.47L85.81-17.47Q86.97-17.47 87.89-17.44L87.89-17.44L87.89-17.44Q88.81-17.41 89.64-17.34L89.64-17.34L89.64-17.34Q90.47-17.28 91.31-17.19L91.31-17.19L91.31-17.19Q92.16-17.09 93.16-16.97L93.16-16.97L93.16-19.06L93.16-19.06Q93.16-21.19 92.23-22.56L92.23-22.56L92.23-22.56Q91.31-23.94 89.97-24.73L89.97-24.73L89.97-24.73Q88.63-25.53 87.16-25.86L87.16-25.86L87.16-25.86Q85.69-26.19 84.66-26.19L84.66-26.19L84.66-26.19Q81.41-26.19 78.66-25.31L78.66-25.31L78.66-25.31Q75.91-24.44 73.53-22.97L73.53-22.97L71.59-26.19L71.59-26.19Q74.22-27.78 77.48-28.80L77.48-28.80L77.48-28.80Q80.75-29.81 84.66-29.81L84.66-29.81L84.66-29.81Q87.03-29.81 89.33-29.20L89.33-29.20L89.33-29.20Q91.63-28.59 93.45-27.33L93.45-27.33L93.45-27.33Q95.28-26.06 96.38-24L96.38-24L96.38-24Q97.47-21.94 97.47-19.06L97.47-19.06L97.47 0L93.16 0L93.16-4.88L93.16-4.88Q92.03-3.47 90.61-2.41L90.61-2.41L90.61-2.41Q89.19-1.34 87.63-0.67L87.63-0.67L87.63-0.67Q86.06 0 84.50 0.36L84.50 0.36L84.50 0.36Q82.94 0.72 81.53 0.72L81.53 0.72L81.53 0.72Q75.75 0.72 72.78-1.50L72.78-1.50L72.78-1.50Q69.81-3.72 69.81-7.88ZM81.53-2.94L81.53-2.94L81.53-2.94Q84.22-2.94 86.36-3.73L86.36-3.73L86.36-3.73Q88.50-4.53 90-5.72L90-5.72L90-5.72Q91.50-6.91 92.33-8.25L92.33-8.25L92.33-8.25Q93.16-9.59 93.16-10.69L93.16-10.69L93.16-13.44L93.16-13.44Q91.06-13.75 89.14-13.78L89.14-13.78L89.14-13.78Q87.22-13.81 85.81-13.81L85.81-13.81L85.81-13.81Q83.50-13.81 81.36-13.50L81.36-13.50L81.36-13.50Q79.22-13.19 77.63-12.48L77.63-12.48L77.63-12.48Q76.03-11.78 75.06-10.66L75.06-10.66L75.06-10.66Q74.09-9.53 74.09-7.88L74.09-7.88L74.09-7.88Q74.09-6.03 75.89-4.48L75.89-4.48L75.89-4.48Q77.69-2.94 81.53-2.94ZM132.41-29.13L132.41-0.31L132.41-0.31Q132.41 2.69 131.38 5.03L131.38 5.03L131.38 5.03Q130.34 7.38 128.48 9L128.48 9L128.48 9Q126.63 10.63 124.11 11.48L124.11 11.48L124.11 11.48Q121.59 12.34 118.50 12.34L118.50 12.34L118.50 12.34Q114.16 12.34 111.11 10.72L111.11 10.72L111.11 10.72Q108.06 9.09 105.84 6.03L105.84 6.03L108.84 3.72L108.84 3.72Q110.19 5.75 112.72 7.13L112.72 7.13L112.72 7.13Q115.25 8.50 118.50 8.50L118.50 8.50L118.50 8.50Q122.94 8.50 125.52 6.27L125.52 6.27L125.52 6.27Q128.09 4.03 128.09-0.19L128.09-0.19L128.09-3.31L128.09-3.31Q124.28 0.06 119.41 0.06L119.41 0.06L119.41 0.06Q112.56 0.06 108.66-3.84L108.66-3.84L108.66-3.84Q104.75-7.75 104.75-14.53L104.75-14.53L104.75-14.53Q104.75-17.84 105.77-20.64L105.77-20.64L105.77-20.64Q106.78-23.44 108.67-25.48L108.67-25.48L108.67-25.48Q110.56-27.53 113.28-28.67L113.28-28.67L113.28-28.67Q116-29.81 119.41-29.81L119.41-29.81L119.41-29.81Q121.78-29.81 124.02-28.98L124.02-28.98L124.02-28.98Q126.25-28.16 128.09-26.50L128.09-26.50L128.09-29.13L132.41-29.13ZM128.09-7.50L128.09-22.34L128.09-22.34Q126.25-24.38 124.05-25.28L124.05-25.28L124.05-25.28Q121.84-26.19 119.41-26.19L119.41-26.19L119.41-26.19Q116.84-26.19 114.89-25.28L114.89-25.28L114.89-25.28Q112.94-24.38 111.66-22.81L111.66-22.81L111.66-22.81Q110.38-21.25 109.70-19.11L109.70-19.11L109.70-19.11Q109.03-16.97 109.03-14.53L109.03-14.53L109.03-14.53Q109.03-9.53 111.63-6.56L111.63-6.56L111.63-6.56Q114.22-3.59 119.41-3.59L119.41-3.59L119.41-3.59Q121.84-3.59 124.05-4.52L124.05-4.52L124.05-4.52Q126.25-5.44 128.09-7.50L128.09-7.50ZM169.63-14.47L169.63-14.47L169.63-14.47Q169.63-11.06 168.55-8.28L168.55-8.28L168.55-8.28Q167.47-5.50 165.45-3.52L165.45-3.52L165.45-3.52Q163.44-1.53 160.63-0.41L160.63-0.41L160.63-0.41Q157.81 0.72 154.34 0.72L154.34 0.72L154.34 0.72Q150.94 0.72 148.13-0.41L148.13-0.41L148.13-0.41Q145.31-1.53 143.30-3.52L143.30-3.52L143.30-3.52Q141.28-5.50 140.20-8.28L140.20-8.28L140.20-8.28Q139.13-11.06 139.13-14.47L139.13-14.47L139.13-14.47Q139.13-17.78 140.20-20.64L140.20-20.64L140.20-20.64Q141.28-23.50 143.30-25.52L143.30-25.52L143.30-25.52Q145.31-27.53 148.13-28.67L148.13-28.67L148.13-28.67Q150.94-29.81 154.34-29.81L154.34-29.81L154.34-29.81Q157.81-29.81 160.63-28.67L160.63-28.67L160.63-28.67Q163.44-27.53 165.45-25.52L165.45-25.52L165.45-25.52Q167.47-23.50 168.55-20.64L168.55-20.64L168.55-20.64Q169.63-17.78 169.63-14.47ZM165.34-14.47L165.34-14.47L165.34-14.47Q165.34-16.97 164.61-19.08L164.61-19.08L164.61-19.08Q163.88-21.19 162.44-22.78L162.44-22.78L162.44-22.78Q161-24.38 158.95-25.28L158.95-25.28L158.95-25.28Q156.91-26.19 154.34-26.19L154.34-26.19L154.34-26.19Q151.78-26.19 149.73-25.28L149.73-25.28L149.73-25.28Q147.69-24.38 146.28-22.78L146.28-22.78L146.28-22.78Q144.88-21.19 144.14-19.08L144.14-19.08L144.14-19.08Q143.41-16.97 143.41-14.47L143.41-14.47L143.41-14.47Q143.41-11.97 144.14-9.86L144.14-9.86L144.14-9.86Q144.88-7.75 146.28-6.22L146.28-6.22L146.28-6.22Q147.69-4.69 149.73-3.81L149.73-3.81L149.73-3.81Q151.78-2.94 154.34-2.94L154.34-2.94L154.34-2.94Q156.91-2.94 158.95-3.81L158.95-3.81L158.95-3.81Q161-4.69 162.44-6.22L162.44-6.22L162.44-6.22Q163.88-7.75 164.61-9.86L164.61-9.86L164.61-9.86Q165.34-11.97 165.34-14.47Z" fill="#444"></path></g></g><style>text {
  font-size: 64px;
  font-family: Arial Black;
  dominant-baseline: central;
  text-anchor: middle;
}</style></svg>