<svg width="222.8100341796875px" height="107.63497314453124px" xmlns="http://www.w3.org/2000/svg" viewBox="138.59498291015626 21.182513427734378 222.8100341796875 107.63497314453124" style="background: rgba(0, 0, 0, 0);" preserveAspectRatio="xMidYMid"><defs><filter id="editing-jagged" x="-100%" y="-100%" width="300%" height="300%"><feTurbulence result="turb" baseFrequency="0.1" numOctaves="1" seed="1"></feTurbulence><feDisplacementMap in="SourceGraphic" in2="turb" scale="10"></feDisplacementMap></filter></defs><g filter="url(#editing-jagged)"><g transform="translate(176.17499911785126, 95.73500061035156)"><path d="M29.63-41.02L30.02-40.51L29.63-36.54L22.46-36.93L18.30-36.93L18.11-12.80L18.30 0L13.12 0L13.50-12.35L13.18-36.93L9.02-36.93L1.73-36.54L1.41-37.06L1.79-41.02L29.63-41.02ZM41.92-31.87L41.73-9.98L41.86 0L37.12 0L37.31-9.60L37.12-31.87L41.92-31.87ZM67.33-31.87L78.53 0L73.73 0L72.96-3.46L71.30-8.19L63.68-8.26L56.90-8.19L55.17-3.71L54.27 0L49.54 0L61.82-31.87L67.33-31.87ZM64.06-12.03L69.95-12.10L64.64-27.20L64.26-27.20L58.43-12.10L64.06-12.03ZM99.39-32.19L99.39-32.19Q104.38-32.19 109.44-30.02L109.44-30.02L107.84-25.41L107.26-25.41L107.26-25.41Q104.90-26.94 102.91-27.55L102.91-27.55L102.91-27.55Q100.93-28.16 98.62-28.16L98.62-28.16L98.62-28.16Q93.18-28.16 90.46-25.09L90.46-25.09L90.46-25.09Q87.74-22.02 87.74-15.49L87.74-15.49L87.74-15.49Q87.74-9.22 90.24-6.43L90.24-6.43L90.24-6.43Q92.74-3.65 98.18-3.65L98.18-3.65L98.18-3.65Q99.78-3.65 101.25-3.94L101.25-3.94L101.25-3.94Q102.72-4.22 104.83-4.99L104.83-4.99L104.83-8.19L104.77-12.74L109.18-13.06L109.18-1.54L109.18-1.54Q102.72 0.38 97.98 0.38L97.98 0.38L97.98 0.38Q90.43 0.38 86.56-3.68L86.56-3.68L86.56-3.68Q82.69-7.74 82.69-15.30L82.69-15.30L82.69-15.30Q82.69-23.49 87.07-27.84L87.07-27.84L87.07-27.84Q91.46-32.19 99.39-32.19L99.39-32.19ZM131.78-32.26L131.78-32.26Q138.75-32.26 142.50-28.16L142.50-28.16L142.50-28.16Q146.24-24.06 146.24-16.58L146.24-16.58L146.24-16.58Q146.24-8.45 142.24-4L142.24-4L142.24-4Q138.24 0.45 130.82 0.45L130.82 0.45L130.82 0.45Q123.90 0.45 120.13-3.74L120.13-3.74L120.13-3.74Q116.35-7.94 116.35-15.68L116.35-15.68L116.35-15.68Q116.35-23.62 120.38-27.94L120.38-27.94L120.38-27.94Q124.42-32.26 131.78-32.26L131.78-32.26ZM131.33-28.22L131.33-28.22Q126.27-28.22 123.81-25.34L123.81-25.34L123.81-25.34Q121.34-22.46 121.34-16.26L121.34-16.26L121.34-16.26Q121.34-9.60 123.78-6.59L123.78-6.59L123.78-6.59Q126.21-3.58 131.20-3.58L131.20-3.58L131.20-3.58Q136.32-3.58 138.82-6.53L138.82-6.53L138.82-6.53Q141.31-9.47 141.31-15.74L141.31-15.74L141.31-15.74Q141.31-22.21 138.85-25.22L138.85-25.22L138.85-25.22Q136.38-28.22 131.33-28.22L131.33-28.22Z" fill="#444"></path></g></g><style>text {
  font-size: 64px;
  font-family: Arial Black;
  dominant-baseline: central;
  text-anchor: middle;
}</style></svg>