<svg width="198.967431640625px" height="119.619921875px" xmlns="http://www.w3.org/2000/svg" viewBox="150.5162841796875 15.190039062499999 198.967431640625 119.619921875" style="background: rgba(147, 219, 233, 0);" preserveAspectRatio="xMidYMid"><defs><filter id="editing-liquid" width="150%" height="160%" x="-25%" y="-25%"><feFlood flood-color="#689cc5" result="flood-1"></feFlood><feFlood flood-color="#5e6fa3" result="flood-2"></feFlood><feFlood flood-color="#3b4368" result="flood-3"></feFlood><feTurbulence baseFrequency="0.01" type="fractalNoise" numOctaves="1" seed="1" result="bs-1"></feTurbulence><feGaussianBlur stdDeviation="10" in="SourceAlpha" result="bs-2"></feGaussianBlur><feDisplacementMap scale="420" in="bs-2" in2="bs-1" result="bs-3"></feDisplacementMap><feComposite operator="in" in="flood-1" in2="bs-3" result="bs-4"></feComposite><feTurbulence baseFrequency="0.02" type="fractalNoise" numOctaves="2" seed="2" result="ms-1"></feTurbulence><feGaussianBlur in="SourceAlpha" stdDeviation="0.1" result="ms-2"></feGaussianBlur><feDisplacementMap in="ms-2" in2="ms-1" scale="35" result="ms-3"></feDisplacementMap><feComposite in="flood-3" in2="ms-3" operator="in" result="ms-4"></feComposite><feTurbulence baseFrequency="0.05" type="fractalNoise" numOctaves="1" seed="3" result="ts-1"></feTurbulence><feGaussianBlur stdDeviation="3.5" in="SourceAlpha" result="ts-2"></feGaussianBlur><feDisplacementMap scale="220" in="ts-2" in2="ts-1" result="ts-3"></feDisplacementMap><feComposite operator="in" in="flood-2" in2="ts-3" result="ts-4"></feComposite><feMerge result="le-1"><feMergeNode in="bs-4"></feMergeNode><feMergeNode in="ms-4"></feMergeNode><feMergeNode in="ts-4"></feMergeNode></feMerge><feColorMatrix type="matrix" in="le-1" result="le-2" values="0 0 0 0 0, 0 0 0 0 0, 0 0 0 0 0, 0 0 0 1 0"></feColorMatrix><feGaussianBlur stdDeviation="2" in="le-2" result="le-3"></feGaussianBlur><feSpecularLighting surfaceScale="5" specularConstant=".75" specularExponent="30" lighting-color="#white" in="le-3" result="le-4"><fePointLight x="-50" y="-100" z="400"></fePointLight></feSpecularLighting><feComposite operator="in" in="le-4" in2="le-2" result="le-5"></feComposite><feComposite operator="arithmetic" k1="0" k2="1" k3="1" k4="0" in="le-1" in2="le-5" result="le-6"></feComposite></filter></defs><g filter="url(#editing-liquid)"><g transform="translate(184.4349982738495, 104.66499900817871)"><path d="M9.47-41.47L9.47-41.47Q6.66-41.47 4.80-40.38L4.80-40.38L4.80-40.38Q2.94-39.30 2.11-37.63L2.11-37.63L3.01-44.03L33.34-44.03L34.24-37.63L34.24-37.63Q33.41-39.30 31.55-40.38L31.55-40.38L31.55-40.38Q29.70-41.47 26.88-41.47L26.88-41.47L20.48-41.47L20.48-5.95L20.48-5.95Q20.48-3.39 21.12-2.05L21.12-2.05L21.12-2.05Q21.76-0.70 22.53-0.26L22.53-0.26L22.53-0.26Q23.30 0.19 23.30 0L23.30 0L13.12 0L13.12 0Q13.12 0.19 13.89-0.26L13.89-0.26L13.89-0.26Q14.66-0.70 15.26-2.02L15.26-2.02L15.26-2.02Q15.87-3.33 15.87-5.95L15.87-5.95L15.87-41.47L9.47-41.47ZM40.45-16.06L40.45-16.06Q40.45-18.75 39.58-19.74L39.58-19.74L39.58-19.74Q38.72-20.74 37.63-20.74L37.63-20.74L44.54-23.81L44.54-6.40L44.54-6.40Q44.54-3.58 45.12-2.18L45.12-2.18L45.12-2.18Q45.70-0.77 46.40-0.29L46.40-0.29L46.40-0.29Q47.10 0.19 47.10 0L47.10 0L37.89 0L37.89 0Q37.89 0.19 38.59-0.29L38.59-0.29L38.59-0.29Q39.30-0.77 39.87-2.18L39.87-2.18L39.87-2.18Q40.45-3.58 40.45-6.40L40.45-6.40L40.45-16.06ZM42.43-31.55L42.43-31.55Q41.02-31.55 40.22-32.48L40.22-32.48L40.22-32.48Q39.42-33.41 39.42-34.62L39.42-34.62L39.42-34.62Q39.42-35.84 40.22-36.77L40.22-36.77L40.22-36.77Q41.02-37.70 42.43-37.70L42.43-37.70L42.43-37.70Q43.84-37.70 44.64-36.77L44.64-36.77L44.64-36.77Q45.44-35.84 45.44-34.62L45.44-34.62L45.44-34.62Q45.44-33.41 44.64-32.48L44.64-32.48L44.64-32.48Q43.84-31.55 42.43-31.55L42.43-31.55ZM71.49 0.77L71.49 0.77Q69.44 0.70 68.03-0.32L68.03-0.32L68.03-0.32Q66.62-1.34 66.43-2.69L66.43-2.69L66.43-2.69Q65.28-1.02 63.39-0.13L63.39-0.13L63.39-0.13Q61.50 0.77 59.65 0.77L59.65 0.77L59.65 0.77Q56.70 0.77 54.72-0.93L54.72-0.93L54.72-0.93Q52.74-2.62 52.74-5.38L52.74-5.38L52.74-5.38Q52.74-12.48 66.05-12.48L66.05-12.48L66.05-13.18L66.05-13.18Q66.05-16.70 65.02-18.37L65.02-18.37L65.02-18.37Q63.62-20.74 60.42-20.74L60.42-20.74L60.42-20.74Q57.92-20.74 56.29-19.26L56.29-19.26L56.29-19.26Q54.66-17.79 54.66-15.42L54.66-15.42L54.66-15.42Q54.27-16.06 54.05-16.58L54.05-16.58L54.05-16.58Q53.82-17.09 53.82-17.98L53.82-17.98L53.82-17.98Q53.82-20.29 56-22.05L56-22.05L56-22.05Q58.18-23.81 61.70-23.81L61.70-23.81L61.70-23.81Q66.69-23.81 68.80-20.48L68.80-20.48L68.80-20.48Q69.50-19.46 69.82-17.92L69.82-17.92L69.82-17.92Q70.14-16.38 70.14-13.89L70.14-13.89L70.14-6.27L70.14-6.27Q70.14-4.29 71.26-3.20L71.26-3.20L71.26-3.20Q72.38-2.11 74.43-2.11L74.43-2.11L75.26-2.11L71.49 0.77ZM66.05-10.56L66.05-10.56Q60.93-10.56 59.14-9.28L59.14-9.28L59.14-9.28Q57.34-8 57.34-5.82L57.34-5.82L57.34-5.82Q57.34-4.03 58.30-3.01L58.30-3.01L58.30-3.01Q59.26-1.98 60.86-1.98L60.86-1.98L60.86-1.98Q62.08-1.98 63.17-2.56L63.17-2.56L63.17-2.56Q64.26-3.14 65.02-4.16L65.02-4.16L65.02-4.16Q66.05-5.50 66.05-7.81L66.05-7.81L66.05-10.56ZM92.03-23.30L100.80-23.30L100.80-20.74L95.49-20.74L95.49-20.74Q97.79-17.92 97.79-14.98L97.79-14.98L97.79-14.98Q97.79-12.48 96.58-10.34L96.58-10.34L96.58-10.34Q95.36-8.19 93.09-6.91L93.09-6.91L93.09-6.91Q90.82-5.63 87.81-5.63L87.81-5.63L87.81-5.63Q86.27-5.63 84.74-5.89L84.74-5.89L84.74-5.89Q82.43-4.61 82.43-3.01L82.43-3.01L82.43-3.01Q82.43-2.37 82.75-1.79L82.75-1.79L82.75-1.79Q83.07-1.22 83.71-0.96L83.71-0.96L83.71-0.96Q84.61-0.58 86.02-0.42L86.02-0.42L86.02-0.42Q87.42-0.26 88.96-0.19L88.96-0.19L88.96-0.19Q90.50-0.13 91.14-0.13L91.14-0.13L91.14-0.13Q96.13 0.06 98.24 1.79L98.24 1.79L98.24 1.79Q100.35 3.52 100.35 5.95L100.35 5.95L100.35 5.95Q100.35 8.51 98.72 10.66L98.72 10.66L98.72 10.66Q97.09 12.80 94.02 14.05L94.02 14.05L94.02 14.05Q90.94 15.30 86.91 15.30L86.91 15.30L86.91 15.30Q83.97 15.30 81.79 14.46L81.79 14.46L81.79 14.46Q79.62 13.63 78.46 12.29L78.46 12.29L78.46 12.29Q77.31 10.94 77.31 9.41L77.31 9.41L77.31 9.41Q77.31 7.36 79.07 5.60L79.07 5.60L79.07 5.60Q80.83 3.84 83.46 2.94L83.46 2.94L83.46 2.94Q81.34 2.82 80.10 1.54L80.10 1.54L80.10 1.54Q78.85 0.26 78.85-1.22L78.85-1.22L78.85-1.22Q78.85-2.82 79.94-4L79.94-4L79.94-4Q81.02-5.18 83.07-6.53L83.07-6.53L83.07-6.53Q80.77-7.55 79.55-9.73L79.55-9.73L79.55-9.73Q78.34-11.90 78.34-14.34L78.34-14.34L78.34-14.34Q78.34-16.70 79.52-18.88L79.52-18.88L79.52-18.88Q80.70-21.06 83.04-22.43L83.04-22.43L83.04-22.43Q85.38-23.81 88.58-23.81L88.58-23.81L88.58-23.81Q90.24-23.81 92.03-23.30L92.03-23.30ZM87.87-21.50L87.87-21.50Q85.50-21.50 83.97-19.81L83.97-19.81L83.97-19.81Q82.43-18.11 82.43-15.49L82.43-15.49L82.43-15.49Q82.43-12.22 84.13-10.14L84.13-10.14L84.13-10.14Q85.82-8.06 88.26-8.06L88.26-8.06L88.26-8.06Q90.82-8.06 92.26-9.76L92.26-9.76L92.26-9.76Q93.70-11.46 93.70-14.27L93.70-14.27L93.70-14.27Q93.70-17.47 92.00-19.49L92.00-19.49L92.00-19.49Q90.30-21.50 87.87-21.50L87.87-21.50ZM88.13 3.71L86.78 3.71L86.78 3.71Q84.42 3.71 82.91 5.18L82.91 5.18L82.91 5.18Q81.41 6.66 81.41 8.45L81.41 8.45L81.41 8.45Q81.41 10.18 83.36 11.42L83.36 11.42L83.36 11.42Q85.31 12.67 88.58 12.67L88.58 12.67L88.58 12.67Q92.48 12.67 94.62 11.20L94.62 11.20L94.62 11.20Q96.77 9.73 96.77 7.55L96.77 7.55L96.77 7.55Q96.77 5.63 94.72 4.67L94.72 4.67L94.72 4.67Q92.67 3.71 88.13 3.71L88.13 3.71ZM104.45-10.94L104.45-10.94Q104.45-14.27 106.08-17.25L106.08-17.25L106.08-17.25Q107.71-20.22 110.59-22.02L110.59-22.02L110.59-22.02Q113.47-23.81 116.99-23.81L116.99-23.81L116.99-23.81Q120.38-23.81 123.14-22.24L123.14-22.24L123.14-22.24Q125.89-20.67 127.46-17.98L127.46-17.98L127.46-17.98Q129.02-15.30 129.02-12.10L129.02-12.10L129.02-12.10Q129.02-8.77 127.39-5.79L127.39-5.79L127.39-5.79Q125.76-2.82 122.88-1.02L122.88-1.02L122.88-1.02Q120 0.77 116.48 0.77L116.48 0.77L116.48 0.77Q113.09 0.77 110.34-0.80L110.34-0.80L110.34-0.80Q107.58-2.37 106.02-5.06L106.02-5.06L106.02-5.06Q104.45-7.74 104.45-10.94L104.45-10.94ZM124.42-10.24L124.42-10.24Q124.42-12.93 123.39-15.55L123.39-15.55L123.39-15.55Q122.37-18.18 120.51-19.84L120.51-19.84L120.51-19.84Q118.66-21.50 116.22-21.50L116.22-21.50L116.22-21.50Q112.83-21.50 110.94-18.94L110.94-18.94L110.94-18.94Q109.06-16.38 109.06-12.80L109.06-12.80L109.06-12.80Q109.06-10.11 110.08-7.49L110.08-7.49L110.08-7.49Q111.10-4.86 112.96-3.20L112.96-3.20L112.96-3.20Q114.82-1.54 117.25-1.54L117.25-1.54L117.25-1.54Q120.64-1.54 122.53-4.10L122.53-4.10L122.53-4.10Q124.42-6.66 124.42-10.24L124.42-10.24Z" fill="#444"></path></g></g><style>text {
  font-size: 64px;
  font-family: Arial Black;
  dominant-baseline: central;
  text-anchor: middle;
}</style></svg>