<svg id="visual" viewBox="0 0 900 600" width="900" height="600" xmlns="http://www.w3.org/2000/svg" xmlns:xlink="http://www.w3.org/1999/xlink" version="1.1"><rect x="0" y="0" width="900" height="600" fill="#1d90ef"></rect><defs><linearGradient id="grad1_0" x1="33.3%" y1="100%" x2="100%" y2="0%"><stop offset="20%" stop-color="#1d90ef" stop-opacity="1"></stop><stop offset="80%" stop-color="#1d90ef" stop-opacity="1"></stop></linearGradient></defs><defs><linearGradient id="grad2_0" x1="0%" y1="100%" x2="66.7%" y2="0%"><stop offset="20%" stop-color="#1d90ef" stop-opacity="1"></stop><stop offset="80%" stop-color="#1d90ef" stop-opacity="1"></stop></linearGradient></defs><g transform="translate(900, 600)"><path d="M-324.5 0C-319.7 -34.3 -314.9 -68.6 -298.6 -97C-282.3 -125.4 -254.5 -147.9 -230.6 -167.5C-206.6 -187.1 -186.6 -203.7 -166.9 -229.8C-147.3 -255.8 -128 -291.3 -100.3 -308.6C-72.5 -326 -36.3 -325.2 0 -324.5L0 0Z" fill="#437fda"></path></g><g transform="translate(0, 0)"><path d="M324.5 0C326.4 37.5 328.3 74.9 308.6 100.3C288.9 125.6 247.7 138.9 224.9 163.4C202.1 187.9 197.7 223.6 178.7 245.9C159.6 268.3 125.9 277.3 93.6 288.2C61.4 299 30.7 311.8 0 324.5L0 0Z" fill="#437fda"></path></g></svg>