<svg id="visual" viewBox="0 0 900 600" width="900" height="600" xmlns="http://www.w3.org/2000/svg" xmlns:xlink="http://www.w3.org/1999/xlink" version="1.1"><rect x="0" y="0" width="900" height="600" fill="#001122"></rect><defs><linearGradient id="grad1_0" x1="33.3%" y1="100%" x2="100%" y2="0%"><stop offset="20%" stop-color="#001122" stop-opacity="1"></stop><stop offset="80%" stop-color="#001122" stop-opacity="1"></stop></linearGradient></defs><defs><linearGradient id="grad2_0" x1="0%" y1="100%" x2="66.7%" y2="0%"><stop offset="20%" stop-color="#001122" stop-opacity="1"></stop><stop offset="80%" stop-color="#001122" stop-opacity="1"></stop></linearGradient></defs><g transform="translate(900, 600)"><path d="M-324.5 0C-283.8 -20.7 -243.1 -41.3 -240.6 -78.2C-238.1 -115.1 -273.8 -168.2 -262.5 -190.7C-251.2 -213.3 -192.9 -205.3 -159.3 -219.2C-125.7 -233.1 -116.7 -268.9 -94.3 -290.1C-71.8 -311.3 -35.9 -317.9 0 -324.5L0 0Z" fill="#01378a"></path></g><g transform="translate(0, 0)"><path d="M324.5 0C308.4 27.8 292.4 55.5 288.2 93.6C284 131.8 291.6 180.2 262.5 190.7C233.4 201.2 167.5 173.7 137 188.5C106.4 203.3 111.2 260.4 94.3 290.1C77.3 319.8 38.7 322.1 0 324.5L0 0Z" fill="#01378a"></path></g></svg>