<svg id="visual" viewBox="0 0 900 600" width="900" height="600" xmlns="http://www.w3.org/2000/svg" xmlns:xlink="http://www.w3.org/1999/xlink" version="1.1"><path d="M0 79L82 115L164 49L245 121L327 55L409 73L491 73L573 43L655 115L736 109L818 103L900 49L900 0L818 0L736 0L655 0L573 0L491 0L409 0L327 0L245 0L164 0L82 0L0 0Z" fill="#00b9cc"></path><path d="M0 217L82 241L164 187L245 199L327 127L409 157L491 169L573 175L655 205L736 187L818 205L900 145L900 47L818 101L736 107L655 113L573 41L491 71L409 71L327 53L245 119L164 47L82 113L0 77Z" fill="#07acc3"></path><path d="M0 355L82 361L164 427L245 391L327 373L409 367L491 361L573 403L655 385L736 289L818 295L900 355L900 143L818 203L736 185L655 203L573 173L491 167L409 155L327 125L245 197L164 185L82 239L0 215Z" fill="#11a0b9"></path><path d="M0 439L82 463L164 475L245 451L327 457L409 445L491 451L573 469L655 445L736 337L818 385L900 391L900 353L818 293L736 287L655 383L573 401L491 359L409 365L327 371L245 389L164 425L82 359L0 353Z" fill="#1994af"></path><path d="M0 601L82 601L164 601L245 601L327 601L409 601L491 601L573 601L655 601L736 601L818 601L900 601L900 389L818 383L736 335L655 443L573 467L491 449L409 443L327 455L245 449L164 473L82 461L0 437Z" fill="#1f88a4"></path></svg>