<svg id="visual" viewBox="0 0 900 600" width="900" height="600" xmlns="http://www.w3.org/2000/svg" xmlns:xlink="http://www.w3.org/1999/xlink" version="1.1"><rect x="0" y="0" width="900" height="600" fill="#1d90ef"></rect><defs><linearGradient id="grad1_0" x1="33.3%" y1="100%" x2="100%" y2="0%"><stop offset="20%" stop-color="#1d90ef" stop-opacity="1"></stop><stop offset="80%" stop-color="#1d90ef" stop-opacity="1"></stop></linearGradient></defs><defs><linearGradient id="grad2_0" x1="0%" y1="100%" x2="66.7%" y2="0%"><stop offset="20%" stop-color="#1d90ef" stop-opacity="1"></stop><stop offset="80%" stop-color="#1d90ef" stop-opacity="1"></stop></linearGradient></defs><g transform="translate(900, 600)"><path d="M-324.5 0C-314.4 -33.2 -304.4 -66.5 -289.1 -93.9C-273.9 -121.4 -253.5 -143.1 -238.7 -173.4C-223.8 -203.7 -214.6 -242.7 -190.7 -262.5C-166.9 -282.3 -128.5 -282.9 -94.3 -290.1C-60 -297.2 -30 -310.9 0 -324.5L0 0Z" fill="#3b78d3"></path></g><g transform="translate(0, 0)"><path d="M324.5 0C325.8 36 327.2 72 308.6 100.3C290 128.6 251.5 149.2 216.8 157.5C182.1 165.9 151.2 161.9 133.4 183.6C115.7 205.4 111.2 252.8 91.2 280.6C71.1 308.3 35.6 316.4 0 324.5L0 0Z" fill="#3b78d3"></path></g></svg>